# xmcd
#
# Track frame offsets:
#	150
#	17139
#	35162
#	56408
#	71372
#	86705
#	102347
#	121362
#	134153
#	149136
#	165587
#	176625
#	190445
#	208974
#	227861
#	242278
#	258928
#	273803
#	291075
#	307988
#	325014
#
# Disc length: 4608 seconds
#
# Revision: 1
# Processed by: cddbd v1.5.1PL2 Copyright (c) Steve Scherf et al.
# Submitted via: audiograbber 1.83.01
#
DISCID=3d11fe15
DTITLE=диажояои (BY G.Z.) - ьела йи ам еимаи о еяытас
DYEAR=2006
DGENRE=емтевмо
TTITLE0=нудайгс - тяиамтажукко сто стгхос (ояцамийо)
TTITLE1=ассувидоу - лпокеяо
TTITLE2=кидайгс - йоййимо айяоциаки
TTITLE3=аябамитайг - то текеутаио таниди
TTITLE4=йотсияас - та гсува бяадуа
TTITLE5=йаяажытгс - еива йапоте лиа ацапг
TTITLE6=мийокаоу - жеццаяи йи' астяа
TTITLE7=йоумтоуяг - стом гкио тоу аицаиоу
TTITLE8=кидайгс - аспяа поукиа
TTITLE9=мийокаоу - яайи
TTITLE10=кейас - циа сема
TTITLE11=лат се 2 ужесеис - аута та латиа
TTITLE12=кидайгс - ыела йи ам еимаи о еяытас
TTITLE13=мийокаоу - лг ле лакымеис мувта лоу
TTITLE14=йаяажытгс - г амалмгсг тоу выяислоу
TTITLE15=кидайгс - л' ейамес йаи с' ацапгса
TTITLE16=памациытопоукос - дуо олояжа латайиа
TTITLE17=спуяопоукоу - еяыта пыс ле цекасес
TTITLE18=папафоцкоу сожиа - жикиа жикиа
TTITLE19=лукыма латима - ма' там г ацапг лас циоятг
TTITLE20=лгтсиас - то цеяайи
EXTD=Ripped by Dj Zraf
EXTT0=
EXTT1=
EXTT2=
EXTT3=
EXTT4=
EXTT5=
EXTT6=
EXTT7=
EXTT8=
EXTT9=
EXTT10=
EXTT11=
EXTT12=
EXTT13=
EXTT14=
EXTT15=
EXTT16=
EXTT17=
EXTT18=
EXTT19=
EXTT20=
PLAYORDER=
